<?xml version="1.0" encoding="UTF-8" standalone="no"?>
<!-- Created with Inkscape (http://www.inkscape.org/) -->

<svg
   width="32"
   height="32"
   viewBox="0 0 8.4666669 8.466667"
   version="1.1"
   id="svg3643"
   inkscape:version="1.1 (c68e22c387, 2021-05-23)"
   sodipodi:docname="favicon.svg"
   xmlns:inkscape="http://www.inkscape.org/namespaces/inkscape"
   xmlns:sodipodi="http://sodipodi.sourceforge.net/DTD/sodipodi-0.dtd"
   xmlns="http://www.w3.org/2000/svg"
   xmlns:svg="http://www.w3.org/2000/svg">
  <sodipodi:namedview
     id="namedview3645"
     pagecolor="#ffffff"
     bordercolor="#666666"
     borderopacity="1.0"
     inkscape:pageshadow="2"
     inkscape:pageopacity="0.0"
     inkscape:pagecheckerboard="0"
     inkscape:document-units="mm"
     showgrid="false"
     units="px"
     inkscape:zoom="4.8014632"
     inkscape:cx="72.373771"
     inkscape:cy="35.510009"
     inkscape:window-width="1920"
     inkscape:window-height="1017"
     inkscape:window-x="-8"
     inkscape:window-y="-8"
     inkscape:window-maximized="1"
     inkscape:current-layer="layer1" />
  <defs
     id="defs3640" />
  <g
     inkscape:label="Capa 1"
     inkscape:groupmode="layer"
     id="layer1">
    <path
       d="M 0.3987871,0.22213644 C 0.364542,0.30153654 0.3302924,0.44590109 0.3302924,0.54695549 c 0,0.13714513 -0.0410941,0.18767311 -0.1986328,0.22376386 -0.15068763,0.0360931 -0.19178435,0.0794001 -0.16438626,0.1804545 0.03424515,0.12270945 0.05479836,0.12270945 0.2945249,0.0360931 0.18493467,-0.0649676 0.33562229,-0.0794001 0.52055694,-0.0288744 0.15068703,0.0288744 0.53425492,0.0649676 0.86987662,0.0649676 0.4863095,0 0.5959003,-0.021656 0.5959003,-0.10827296 0,-0.0577412 0.034245,-0.10827301 0.068495,-0.10827301 0.041094,0 0.068494,0.0505303 0.068494,0.10827301 0,0.057749 -0.027396,0.10827296 -0.068494,0.10827296 -0.04795,0 -0.068495,1.1043837 -0.068495,3.1760043 v 3.168787 l 0.1917836,0.1010544 c 0.1027419,0.057749 0.5411054,0.2382004 0.9794689,0.4042183 L 4.2139175,8.1838069 5.1865366,7.8012429 6.1523055,7.4258966 V 4.2210194 1.02336 h 0.6369969 c 0.3424714,0 0.7465878,-0.0360931 0.8972744,-0.0649676 C 7.8715116,0.9078621 8.0221991,0.9222993 8.2071332,0.9872668 8.4468633,1.0738847 8.4674117,1.0738847 8.5016588,0.95117369 8.5290549,0.85011947 8.4879607,0.80681009 8.3372724,0.77071935 8.1797357,0.73462626 8.138639,0.68410062 8.138639,0.54695549 c 0,-0.40421916 -0.3356216,-0.6207644 -0.5479537,-0.35369117 -0.082193,0.10827223 -0.061647,0.20210879 0.1164399,0.54136428 0.013698,0.0216559 -1.54797,0.0360931 -3.4726588,0.0360931 -1.9178396,0 -3.48635896,-0.0144372 -3.47266026,-0.0360931 C 0.93989176,0.39537311 0.96044011,0.30153655 0.87824669,0.19326432 0.7549571,0.04168193 0.48782959,0.05611839 0.3987871,0.22213876 Z m 0.32192292,0.25263677 c -0.0273962,0.0649597 -0.0753438,0.11549164 -0.1164405,0.11549164 -0.0753432,0 -0.0958915,-0.23820032 -0.0205474,-0.31760042 0.0753438,-0.0721862 0.17808497,0.0794001 0.1369879,0.20210878 z M 7.9331566,0.45311736 c 0,0.14436376 -0.1027418,0.18767312 -0.1712359,0.0649675 -0.061648,-0.10827301 0.020547,-0.3103818 0.1027412,-0.25263676 0.034245,0.0216559 0.068495,0.10827301 0.068495,0.18767311 z M 5.035849,2.6907568 c 0.2260314,0.1876731 0.2876759,0.3176005 0.2945256,0.5846736 0,0.3464735 -0.2054831,0.5846737 -0.4657609,0.548583 C 4.6317326,3.7951389 4.5769372,3.5280673 4.7550229,3.3259577 4.9331078,3.1166303 4.7755699,3.0300116 4.2755626,3.066103 3.9262422,3.0877589 3.8440487,3.123852 3.6796624,3.3187398 c -0.2328805,0.2742911 -0.23973,0.3103826 -0.075344,0.5124915 0.082194,0.1154915 0.2739772,0.1876731 0.698642,0.2670731 0.9315218,0.1876731 1.1644023,0.3825641 1.1644023,0.9744564 0,0.6857281 -0.4589113,1.0755107 -1.2534454,1.0755107 -0.7465871,0 -1.2123487,-0.2959461 -1.2123487,-0.7723468 0,-0.1876731 0.041094,-0.2598553 0.1849347,-0.3320369 0.1575367,-0.072186 0.1849347,-0.064967 0.2534289,0.057741 0.041094,0.072186 0.1575371,0.2309825 0.2602784,0.3392555 0.1438379,0.1660188 0.2397295,0.2021096 0.500008,0.2021096 0.4726106,0 0.7191898,-0.1660188 0.7191898,-0.4836193 0,-0.2237639 -0.2328806,-0.3609097 -0.7808343,-0.4547463 C 3.8782958,4.6613168 3.5837703,4.5819198 3.4810291,4.5241741 2.8166348,4.1632641 2.8440322,3.1960264 3.5221232,2.7557166 3.9399378,2.4814255 4.7413216,2.4453347 5.0358466,2.690749 Z"
       id="path2"
       style="fill:#ffffff;fill-opacity:1;stroke-width:0.00703139" />
  </g>
</svg>
