<?xml version="1.0" encoding="UTF-8" standalone="no"?>
<!-- Created with Inkscape (http://www.inkscape.org/) -->

<svg
   width="90mm"
   height="55mm"
   viewBox="0 0 90 55"
   version="1.1"
   id="svg3643"
   inkscape:version="1.1 (c68e22c387, 2021-05-23)"
   sodipodi:docname="icono4.svg"
   xmlns:inkscape="http://www.inkscape.org/namespaces/inkscape"
   xmlns:sodipodi="http://sodipodi.sourceforge.net/DTD/sodipodi-0.dtd"
   xmlns="http://www.w3.org/2000/svg"
   xmlns:svg="http://www.w3.org/2000/svg">
  <sodipodi:namedview
     id="namedview3645"
     pagecolor="#ffffff"
     bordercolor="#666666"
     borderopacity="1.0"
     inkscape:pageshadow="2"
     inkscape:pageopacity="0.0"
     inkscape:pagecheckerboard="0"
     inkscape:document-units="mm"
     showgrid="false"
     units="mm"
     inkscape:zoom="0.74118967"
     inkscape:cx="211.14703"
     inkscape:cy="346.06526"
     inkscape:window-width="1920"
     inkscape:window-height="1017"
     inkscape:window-x="-8"
     inkscape:window-y="-8"
     inkscape:window-maximized="1"
     inkscape:current-layer="layer1" />
  <defs
     id="defs3640" />
  <g
     inkscape:label="Capa 1"
     inkscape:groupmode="layer"
     id="layer1">
    <path
       d="m 23.437953,6.2476841 c -0.176389,0.3880556 -0.352778,1.0936112 -0.352778,1.5875001 0,0.6702778 -0.211666,0.9172223 -1.023055,1.0936112 -0.776112,0.1763889 -0.987778,0.3880556 -0.846667,0.8819445 0.176389,0.5997221 0.282222,0.5997221 1.516944,0.1763889 0.9525,-0.3175 1.728612,-0.3880556 2.681112,-0.1411111 0.776111,0.1411111 2.751667,0.3175003 4.480278,0.3175003 2.504722,0 3.069167,-0.105834 3.069167,-0.529167 0,-0.2822222 0.176389,-0.5291667 0.352777,-0.5291667 0.211667,0 0.352778,0.2469445 0.352778,0.5291667 0,0.2822222 -0.141111,0.529167 -0.352778,0.529167 -0.246944,0 -0.352777,5.3975 -0.352777,15.522222 v 15.486946 l 0.987777,0.493889 c 0.529167,0.282222 2.786945,1.164166 5.044723,1.975555 l 4.092222,1.516945 5.009445,-1.869722 4.974167,-1.834445 V 25.791574 10.163518 h 3.280834 c 1.763889,0 3.845278,-0.1763892 4.621389,-0.3175003 0.9525,-0.2469445 1.728611,-0.1763889 2.681111,0.1411111 1.234723,0.4233332 1.340556,0.4233332 1.516945,-0.1763889 C 65.312678,9.316851 65.101011,9.1051843 64.3249,8.9287954 63.513511,8.7524065 63.301844,8.505462 63.301844,7.8351842 c 0,-1.9755557 -1.728611,-3.0338891 -2.822222,-1.7286112 -0.423333,0.5291667 -0.3175,0.9877778 0.599722,2.6458335 0.07056,0.1058333 -7.972778,0.1763889 -17.885834,0.1763889 -9.877779,0 -17.95639,-0.070556 -17.885835,-0.1763889 0.917223,-1.6580557 1.023056,-2.1166668 0.599723,-2.6458335 -0.635,-0.7408334 -2.010834,-0.6702778 -2.469445,0.1411111 z m 1.658056,1.2347223 c -0.141111,0.3175 -0.388056,0.5644445 -0.599723,0.5644445 -0.388055,0 -0.493889,-1.1641667 -0.105833,-1.5522223 0.388056,-0.3527778 0.917222,0.3880556 0.705556,0.9877778 z M 62.243511,7.3765731 c 0,0.7055556 -0.529167,0.9172223 -0.881944,0.3175 -0.317501,-0.5291667 0.105833,-1.5169445 0.529166,-1.2347223 0.176389,0.1058333 0.352778,0.5291667 0.352778,0.9172223 z M 47.32101,18.312684 c 1.164167,0.917223 1.481667,1.552223 1.516945,2.857501 0,1.693333 -1.058334,2.8575 -2.398889,2.681111 -1.199445,-0.141111 -1.481667,-1.446389 -0.564445,-2.434167 0.917222,-1.023056 0.105833,-1.446389 -2.469445,-1.27 -1.799166,0.105833 -2.2225,0.282222 -3.069166,1.234722 -1.199445,1.340556 -1.234723,1.516945 -0.388056,2.504723 0.423333,0.564444 1.411111,0.917222 3.598334,1.305277 4.797778,0.917223 5.997222,1.869723 5.997222,4.762501 0,3.351389 -2.363611,5.256389 -6.455834,5.256389 -3.845278,0 -6.244167,-1.446389 -6.244167,-3.774722 0,-0.917223 0.211667,-1.270001 0.9525,-1.622778 0.811389,-0.352778 0.952501,-0.3175 1.305278,0.282222 0.211667,0.352778 0.811389,1.128889 1.340556,1.658056 0.740833,0.811389 1.234722,0.987777 2.575278,0.987777 2.434167,0 3.704167,-0.811389 3.704167,-2.363611 0,-1.093611 -1.199445,-1.763889 -4.021667,-2.2225 -1.340556,-0.211667 -2.8575,-0.599722 -3.386667,-0.881944 -3.421945,-1.763889 -3.280834,-6.491112 0.211667,-8.643057 2.151944,-1.340555 6.279445,-1.516944 7.796389,-0.3175 z"
       id="path2"
       style="fill:#ffffff;fill-opacity:1;stroke-width:0.0352778" />
  </g>
</svg>
