<?xml version="1.0" encoding="UTF-8" standalone="no"?>
<!-- Created with Inkscape (http://www.inkscape.org/) -->

<svg
   width="210mm"
   height="28mm"
   viewBox="0 0 210 28"
   version="1.1"
   id="svg1108"
   sodipodi:docname="letritas.svg"
   inkscape:version="1.1 (c68e22c387, 2021-05-23)"
   xmlns:inkscape="http://www.inkscape.org/namespaces/inkscape"
   xmlns:sodipodi="http://sodipodi.sourceforge.net/DTD/sodipodi-0.dtd"
   xmlns:xlink="http://www.w3.org/1999/xlink"
   xmlns="http://www.w3.org/2000/svg"
   xmlns:svg="http://www.w3.org/2000/svg">
  <sodipodi:namedview
     id="namedview1110"
     pagecolor="#ffffff"
     bordercolor="#666666"
     borderopacity="1.0"
     inkscape:pageshadow="2"
     inkscape:pageopacity="0.0"
     inkscape:pagecheckerboard="0"
     inkscape:document-units="mm"
     showgrid="false"
     inkscape:zoom="0.74118967"
     inkscape:cx="397.33419"
     inkscape:cy="22.261508"
     inkscape:window-width="1920"
     inkscape:window-height="1017"
     inkscape:window-x="-8"
     inkscape:window-y="-8"
     inkscape:window-maximized="1"
     inkscape:current-layer="layer1" />
  <defs
     id="defs1105">
    <linearGradient
       id="linearGradient3689"
       inkscape:swatch="solid">
      <stop
         style="stop-color:#5b262e;stop-opacity:1;"
         offset="0"
         id="stop3687" />
    </linearGradient>
    <linearGradient
       id="linearGradient3639"
       inkscape:swatch="solid">
      <stop
         style="stop-color:#a1ac93;stop-opacity:1;"
         offset="0"
         id="stop3637" />
    </linearGradient>
    <linearGradient
       id="linearGradient3505"
       inkscape:swatch="solid">
      <stop
         style="stop-color:#5b262e;stop-opacity:1;"
         offset="0"
         id="stop3503" />
    </linearGradient>
    <linearGradient
       inkscape:collect="always"
       xlink:href="#linearGradient3689"
       id="linearGradient3691"
       x1="145.52132"
       y1="14.149043"
       x2="207.94359"
       y2="14.149043"
       gradientUnits="userSpaceOnUse" />
    <linearGradient
       inkscape:collect="always"
       xlink:href="#linearGradient3689"
       id="linearGradient3693"
       x1="13.806954"
       y1="14.598231"
       x2="87.681881"
       y2="14.598231"
       gradientUnits="userSpaceOnUse" />
    <linearGradient
       inkscape:collect="always"
       xlink:href="#linearGradient3689"
       id="linearGradient3695"
       x1="1.2884955"
       y1="14.998715"
       x2="13.72732"
       y2="14.998715"
       gradientUnits="userSpaceOnUse" />
    <linearGradient
       inkscape:collect="always"
       xlink:href="#linearGradient3689"
       id="linearGradient3697"
       x1="132.97424"
       y1="15.016813"
       x2="146.86371"
       y2="15.016813"
       gradientUnits="userSpaceOnUse" />
    <linearGradient
       inkscape:collect="always"
       xlink:href="#linearGradient3689"
       id="linearGradient3699"
       x1="92.871301"
       y1="15.489275"
       x2="128.06456"
       y2="15.489275"
       gradientUnits="userSpaceOnUse" />
  </defs>
  <g
     inkscape:label="Capa 1"
     inkscape:groupmode="layer"
     id="layer1">
    <path
       d="m 176.33624,0.97108403 c -1.17826,1.28114757 -1.4555,2.98934437 -1.59409,11.85062297 -0.27723,9.822138 -0.34655,10.35595 -2.00997,11.530339 -1.5248,1.067622 -1.94065,0.8541 -3.04959,-1.174389 -1.59411,-3.202871 -0.97031,-5.978692 1.17825,-5.124594 1.87134,0.747339 2.77235,-0.96086 1.66343,-3.096107 -0.64244,-1.166268 -1.54308,-1.607196 -2.46057,-1.500926 -1.85416,0.214748 -3.77724,2.66424 -3.77724,5.878184 0,2.455536 -1.24755,4.697543 -2.56442,4.697543 -0.69309,0 -0.8317,-1.067623 -0.48518,-4.270494 0.41586,-3.736683 0.27725,-4.377258 -1.24756,-5.338118 -2.49511,-1.814961 -5.12883,0.213507 -6.72294,5.124593 -1.31688,3.950209 -2.56442,5.551642 -4.36645,5.551642 -0.41587,0 -0.27724,-0.854092 0.34654,-1.921723 1.45549,-2.455531 1.52479,-6.939552 0.13851,-8.754512 -1.52479,-1.921724 -4.43575,-0.427051 -5.19815,2.77582 -1.03963,4.056973 -0.83171,5.658404 1.03963,8.434234 1.73271,2.775815 5.26746,3.523151 7.20812,1.708192 0.62378,-0.640576 1.52479,-0.640576 2.21789,0 0.69306,0.533812 1.87134,0.533812 2.84164,0 0.97033,-0.53381 2.00996,-0.427046 2.77236,0.213538 0.83171,0.8541 1.6634,0.747334 2.98028,-0.106765 1.31687,-0.960865 2.21788,-0.960865 3.25752,-0.106773 0.76238,0.640577 2.35649,0.854101 3.60406,0.533812 1.17823,-0.427046 2.84165,-0.747334 3.74267,-0.640576 1.17824,0 1.52479,-0.64057 1.52479,-2.562293 0,-2.882584 2.56443,-8.434229 3.53475,-7.580131 0.34655,0.427049 0.62378,2.455535 0.62378,4.697547 0,5.444877 1.45548,7.3666 4.29715,5.658407 1.52477,-0.8541 2.49511,-0.8541 3.53474,-0.106772 3.46545,2.882587 9.4953,-1.281147 9.4953,-6.619267 0,-1.281151 0.48517,-2.028485 1.24756,-2.028485 1.03963,0 1.31688,0.854099 1.24757,4.484024 -0.0694,4.05697 0.13869,4.590781 1.52478,4.911069 0.90103,0.21351 2.35652,-0.427053 3.32684,-1.281153 1.94065,-2.028488 2.35648,-5.551641 0.48515,-4.377257 -3.2575,2.028488 -3.9506,2.028488 -3.32682,-0.106772 1.17824,-4.484019 0.8317,-6.298979 -1.45548,-6.619268 -1.52481,-0.213507 -2.35651,-0.960861 -2.56443,-2.455534 -0.69309,-3.8434464 -2.91097,-2.028487 -2.98028,2.242011 -0.0694,5.87193 -0.20793,6.298981 -2.00995,8.113945 -2.2872,2.242003 -2.84166,1.387911 -1.38618,-2.135253 1.4555,-3.416396 0.83172,-6.832793 -1.52479,-7.686892 -1.94065,-0.747336 -4.15854,1.921723 -4.50506,5.444884 -0.62379,6.085453 -3.0496,6.192218 -2.77237,0.106769 0.41586,-6.726031 -2.28718,-9.181567 -5.26747,-4.911071 -1.80203,2.562299 -1.87134,1.81496 -0.48515,-4.270496 1.24755,-5.5516445 1.31687,-6.5125059 0.1385,-8.8612779 -0.76238,-1.70820026 -0.97031,-1.70820026 -2.21786,-0.32028617 z M 150.34544,18.373352 c 0,0.533814 -0.27723,1.601434 -0.69309,2.455536 -0.7624,1.921723 -1.73273,0.747336 -1.17825,-1.601436 0.41585,-1.601438 1.87134,-2.24201 1.87134,-0.8541 z m 10.39631,1.281148 c 0,2.348769 -1.73271,4.80431 -2.77236,3.843447 -0.97032,-0.960858 -0.90101,-2.242009 0.41586,-4.163733 1.45548,-2.242011 2.3565,-2.135249 2.3565,0.320286 z m 30.49588,-0.533812 c 0,1.7082 -1.24755,3.309635 -1.87134,2.348772 -0.55446,-0.854099 0.34654,-3.843446 1.17825,-3.843446 0.34654,0 0.69309,0.640575 0.69309,1.494674 z"
       id="path4"
       sodipodi:nodetypes="ccccccssscccsccccccscccccscsccsscccccscccccccccccsccssccsssss"
       style="stroke-width:0.2;fill:#f5f5f5;fill-opacity:1;stroke:url(#linearGradient3691);stroke-opacity:1;stroke-miterlimit:4;stroke-dasharray:none" />
    <path
       d="m 41.530612,2.1454687 c -0.48516,0.8540984 -1.039632,3.7366825 -1.247558,6.4057439 -0.207925,3.5231584 -0.623779,4.8043064 -1.455485,4.8043064 -1.871337,0 -3.742676,2.669061 -4.574382,6.512508 -0.485161,2.028485 -1.316867,3.736684 -1.940647,3.950207 -0.831704,0.320288 -1.178249,-0.747335 -1.316867,-4.804309 -0.138607,-3.736683 -0.48516,-5.124594 -1.247558,-5.124594 -0.623779,0 -1.10894,1.174384 -1.24756,2.669059 -0.48516,6.405744 -0.831704,7.580132 -2.425806,7.259844 -1.247558,-0.213509 -1.524794,-1.067623 -1.594103,-4.37726 -0.06932,-7.686892 -2.217883,-7.473365 -3.049587,0.320289 -0.277235,2.775826 -0.693088,3.736684 -1.732722,3.736684 -2.079262,0 -2.287188,-5.017834 -0.277234,-6.405744 1.940647,-1.281148 2.564426,-3.736684 0.970323,-3.736684 -0.970323,0 -1.10894,-0.640575 -0.762395,-3.5231587 0.207926,-1.8149606 0.06932,-4.1637323 -0.277236,-5.0178307 -0.623781,-1.3879133 -0.901016,-1.2811504 -2.079265,0.9608615 -0.762398,1.3879102 -1.386176,3.3096335 -1.386176,4.4840169 0,1.067625 -0.554471,2.348776 -1.178249,2.989347 -1.039634,0.854099 -1.10894,1.387912 -0.346545,3.202875 0.415854,1.281148 0.831707,3.62992 0.831707,5.33812 0,5.444877 3.049587,8.113941 6.237792,5.444877 0.901014,-0.747335 1.871338,-0.64057 3.118896,0.213544 1.386177,0.960858 2.148573,0.960858 3.118896,0 1.039633,-0.960865 1.802028,-0.960865 3.049587,-0.106773 1.108942,0.8541 2.079265,0.8541 2.910971,0.106773 0.831704,-0.747343 1.73272,-0.640577 2.91097,0.106764 1.178249,0.854101 2.009954,0.854101 2.980277,-0.106764 1.039633,-1.067631 1.594103,-1.067631 2.633735,0 1.039634,0.960858 1.732721,0.960858 3.188206,0 1.316868,-0.960865 2.079263,-0.960865 3.049586,-0.106773 0.831707,0.8541 2.495118,0.960865 5.267469,0.320288 3.673368,-0.854099 4.089221,-1.281153 4.574383,-4.056968 0.623779,-3.629926 2.633735,-7.259846 3.534749,-6.405746 0.346545,0.427048 0.48516,2.242009 0.277235,4.163732 -0.55447,4.590783 1.039633,7.473371 3.673366,6.405741 2.287191,-0.747335 2.703045,-0.747335 5.128852,0.106772 1.455484,0.533812 2.495117,0.106772 3.881294,-1.494677 1.871338,-2.135245 1.940645,-2.135245 2.703043,-0.106765 1.039632,2.455535 4.851617,2.775824 5.406087,0.427047 0.207925,-0.8541 1.524794,-2.562292 2.841662,-3.73668 1.871338,-1.708199 2.287195,-2.5623 1.732723,-3.416398 -0.554474,-0.854099 -1.247564,-0.854099 -2.495126,-0.10677 -2.079259,1.494674 -3.188201,0 -3.188201,-4.163732 0,-4.804306 -2.217882,-3.736682 -5.267469,2.562299 -2.772351,5.76517 -4.851615,7.473363 -5.891247,4.91107 -1.039633,-2.455536 -0.69309,-4.056973 1.039632,-5.124597 2.287189,-1.281147 2.910968,-3.202869 1.316866,-3.843445 -1.039631,-0.42705 -1.178249,-1.387912 -1.039631,-5.3381201 0.207926,-3.6299193 0.06931,-4.6975437 -0.762398,-4.6975437 -1.386176,0 -2.287191,2.0284859 -2.841661,6.0854551 -0.277235,1.8149617 -0.970324,3.6299227 -1.594102,3.9502087 -0.970324,0.640576 -0.970324,0.854098 0,2.562298 1.594102,2.775821 0.831706,7.68689 -1.247559,7.68689 -0.623778,0 -1.039633,-1.601434 -1.178249,-5.124591 -0.207927,-4.377259 -0.415853,-5.017835 -1.802028,-5.338122 -0.901017,-0.213538 -2.217882,0.42705 -2.910971,1.387912 -1.108942,1.494674 -1.247558,1.494674 -1.594103,0 -0.277234,-0.854102 -0.901013,-1.601437 -1.524793,-1.601437 -0.762397,0 -1.039633,1.174388 -1.039633,4.163733 0,4.37726 -0.693087,5.76517 -3.39613,7.046317 -1.594103,0.747335 -1.594103,0.747335 -0.485164,-1.7082 1.594104,-3.629917 1.386177,-7.153078 -0.554469,-8.540989 -2.148573,-1.601436 -4.435764,0.320287 -4.990234,4.163733 -0.693089,5.124598 -0.970324,5.765175 -2.148573,5.338121 C 42.500936,23.391181 42.500936,23.604725 43.33264,10.045886 43.817803,1.7184187 43.194034,-0.95064223 41.530612,2.1454687 Z M 40.144436,19.6545 c 0,2.348769 -1.73272,4.80431 -2.772353,3.843447 -1.03963,-0.960858 -0.831704,-2.775821 0.415855,-4.91107 1.316867,-2.24201 2.356498,-1.708198 2.356498,1.067623 z m 9.980469,-1.067623 c 0.207925,0.533811 -0.06931,1.494673 -0.623779,2.242011 -0.901015,1.067624 -1.039633,0.960862 -1.039633,-0.960861 0,-2.242013 0.970324,-2.989348 1.663412,-1.28115 z m 29.59486,1.494673 c -0.901015,1.38791 -1.80203,0.320286 -1.108942,-1.281148 0.207927,-0.640575 0.762398,-0.854099 1.178251,-0.533813 0.415851,0.427049 0.415851,1.067625 -0.06931,1.814961 z m 1.316868,3.950207 c 0,0.533812 -0.485163,1.067623 -1.039634,1.067623 -0.554469,0 -1.039631,-0.533811 -1.039631,-1.067623 0,-0.640576 0.485162,-1.067623 1.039631,-1.067623 0.554471,0 1.039634,0.427047 1.039634,1.067623 z"
       id="path6"
       style="stroke-width:0.2;fill:#f5f5f5;fill-opacity:1;stroke:url(#linearGradient3693);stroke-opacity:1;stroke-miterlimit:4;stroke-dasharray:none" />
    <path
       d="M 5.1434889,2.5725179 C 2.6483718,4.1739545 1.1928871,7.5903506 1.4701226,11.327033 c 0.2079279,3.950209 1.9406471,5.76517 6.3071009,6.832794 3.0495865,0.747339 4.0892195,3.309633 2.2178828,5.444884 C 7.985149,25.846722 5.69796,25.419668 4.1731676,22.323565 2.6483718,19.440974 1.331506,19.6545 1.331506,22.964134 c 0,5.44488 7.7625859,7.366604 10.742863,2.669065 3.049589,-4.590788 1.594102,-10.46272 -2.9109689,-11.637105 -4.2971469,-1.174387 -5.0595425,-1.708199 -5.0595425,-3.736686 0,-2.7758205 1.4554847,-4.3772568 3.9506016,-4.3772568 2.1485728,0 2.2871898,0.2135379 1.8713369,2.6690614 -0.3465449,2.2420084 -0.2079255,2.6690584 0.9703239,2.6690584 0.762398,0 1.594102,-0.854099 1.871337,-2.0284834 C 13.876399,3.7469052 9.4406358,-0.09654103 5.1434889,2.5725179 Z"
       id="path8"
       style="stroke-width:0.2;fill:#f5f5f5;fill-opacity:1;stroke:url(#linearGradient3695);stroke-opacity:1;stroke-miterlimit:4;stroke-dasharray:none" />
    <path
       d="m 134.26579,2.7860439 c -1.17826,1.0676244 -1.66342,4.1637314 -0.83171,5.4448825 0.20793,0.3202862 1.24756,0.1067686 2.28719,-0.5338122 1.03963,-0.5338129 2.77236,-0.7473389 3.74268,-0.3202897 1.73273,0.6405752 1.87133,1.1743881 1.87133,5.7651695 0,6.19222 -1.24755,10.249187 -3.32681,10.67624 -1.87134,0.427054 -2.14858,-2.66906 -0.34654,-4.590782 1.10893,-1.281149 0.76239,-3.736683 -0.55447,-3.736683 -1.24757,0 -3.39614,4.270494 -3.39614,6.832796 0,3.523157 1.73272,5.978691 4.15853,5.978691 3.32683,0 4.85162,-2.882588 5.75262,-11.210053 0.48516,-4.804308 1.24756,-8.0071784 2.00997,-8.8612766 1.52479,-1.7081999 1.59409,-3.7366857 0.13861,-5.6584085 -0.83171,-1.0676251 -1.38619,-1.0676251 -2.3565,-0.1067694 -0.90103,0.8541012 -2.00996,0.8541012 -3.60407,0.213538 -2.84165,-1.2811476 -4.0199,-1.2811476 -5.5447,0.1067693 z"
       id="path10"
       style="stroke-width:0.2;fill:#f5f5f5;fill-opacity:1;stroke:url(#linearGradient3697);stroke-opacity:1;stroke-miterlimit:4;stroke-dasharray:none" />
    <path
       d="m 98.155902,4.8145296 c -0.97032,1.1743847 -2.287184,4.484018 -2.980273,7.2598414 -0.693089,2.775823 -1.455492,5.551643 -1.802036,6.298981 -0.346534,0.640573 -0.554462,2.882586 -0.415847,4.804305 0.277232,4.590788 2.079267,5.124599 3.1189,0.8541 0.69309,-2.775819 1.108936,-3.202869 3.257512,-3.202869 2.148572,0 2.495112,0.320286 2.495112,2.562293 0,2.669064 1.5248,5.444887 2.28719,4.163741 0.27724,-0.320295 0.48516,-2.028488 0.48516,-3.629929 0,-1.921724 0.41586,-2.989345 1.38618,-3.416394 1.10894,-0.427049 1.24756,-0.213538 0.69308,1.387913 -1.03963,2.989346 -0.83169,5.338115 0.41586,5.338115 0.62378,0 1.52479,-1.814959 2.14857,-4.270493 1.45548,-5.551642 3.11891,-5.765169 2.84166,-0.427045 -0.27723,5.017833 1.24756,6.83279 4.36646,5.017833 1.45548,-0.854107 2.63373,-0.960865 3.46544,-0.320295 2.00995,1.708199 5.19816,1.174387 6.93088,-0.960858 1.24755,-1.601435 1.45549,-2.348776 0.8317,-3.309635 -0.62378,-1.067622 -1.17825,-0.960865 -2.35649,0.427047 -2.3565,2.455541 -3.9506,2.348776 -2.49512,-0.213537 2.14856,-3.629921 1.10893,-9.822139 -1.59411,-9.822139 -1.94064,0 -3.53474,2.66906 -4.08922,6.405743 -0.27723,2.242008 -0.97032,3.84345 -1.66341,4.056972 -1.03963,0.320289 -1.17825,-0.213509 -0.76239,-3.950208 0.41584,-4.270498 0.41584,-4.377259 -1.66341,-4.377259 -1.52479,0 -2.21788,-0.640575 -2.56443,-2.135248 -0.27724,-1.174389 -1.03963,-2.13525 -1.87134,-2.13525 -1.17825,0 -1.38617,0.533811 -1.10894,3.202874 0.27725,2.562298 0.0694,3.20287 -0.62377,2.669058 -0.55448,-0.320287 -1.31687,-0.533812 -1.66341,-0.533812 -0.34655,0 -0.62379,-1.921723 -0.62379,-4.270495 0,-8.8612792 -2.70304,-12.06414954 -6.445718,-7.4733651 z m 3.534768,7.2598414 c 0.13862,3.096108 -0.0694,4.484019 -0.6931,4.484019 -0.48516,0 -1.663412,0.320289 -2.564426,0.747338 -1.524793,0.640575 -1.594106,0.42705 -1.178249,-2.455534 0.69309,-4.270497 2.425803,-8.1139416 3.396125,-7.5801297 0.48517,0.2135085 0.90101,2.348772 1.03965,4.8043067 z m 20.23815,6.298981 c 0,0.533814 -0.27723,1.601434 -0.69309,2.455536 -0.76239,1.921723 -1.73272,0.747336 -1.17825,-1.601436 0.41586,-1.601438 1.87134,-2.24201 1.87134,-0.8541 z"
       id="path12"
       style="stroke-width:0.2;fill:#f5f5f5;fill-opacity:1;stroke:url(#linearGradient3699);stroke-opacity:1;stroke-miterlimit:4;stroke-dasharray:none" />
  </g>
</svg>
