<?xml version="1.0" encoding="UTF-8" standalone="no"?>
<svg
   version="1.0"
   width="673.000000pt"
   height="247.000000pt"
   viewBox="0 0 673.000000 247.000000"
   preserveAspectRatio="xMidYMid meet"
   id="svg16"
   sodipodi:docname="logo.svg"
   inkscape:version="1.1 (c68e22c387, 2021-05-23)"
   xmlns:inkscape="http://www.inkscape.org/namespaces/inkscape"
   xmlns:sodipodi="http://sodipodi.sourceforge.net/DTD/sodipodi-0.dtd"
   xmlns="http://www.w3.org/2000/svg"
   xmlns:svg="http://www.w3.org/2000/svg">
  <defs
     id="defs20" />
  <sodipodi:namedview
     id="namedview18"
     pagecolor="#ffffff"
     bordercolor="#666666"
     borderopacity="1.0"
     inkscape:pageshadow="2"
     inkscape:pageopacity="0.0"
     inkscape:pagecheckerboard="0"
     inkscape:document-units="pt"
     showgrid="false"
     inkscape:zoom="1.2637444"
     inkscape:cx="449.06232"
     inkscape:cy="164.98589"
     inkscape:window-width="1920"
     inkscape:window-height="1017"
     inkscape:window-x="-8"
     inkscape:window-y="-8"
     inkscape:window-maximized="1"
     inkscape:current-layer="g14" />
  <g
     transform="translate(0.000000,247.000000) scale(0.100000,-0.100000)"
     fill="#000000"
     stroke="none"
     id="g14">
    <path
       d="M2750 1971 c-5 -11 -10 -31 -10 -45 0 -19 -6 -26 -29 -31 -22 -5 -28 -11 -24 -25 5 -17 8 -17 43 -5 27 9 49 11 76 4 22 -4 78 -9 127 -9 71 0 87 3 87 15 0 8 5 15 10 15 6 0 10 -7 10 -15 0 -8 -4 -15 -10 -15 -7 0 -10 -153 -10 -440 l0 -439 28 -14 c15 -8 79 -33 143 -56 l116 -43 142 53 141 52 0 444 0 443 93 0 c50 0 109 5 131 9 27 7 49 5 76 -4 35 -12 38 -12 43 5 4 14 -2 20 -24 25 -23 5 -29 12 -29 31 0 56 -49 86 -80 49 -12 -15 -9 -28 17 -75 2 -3 -226 -5 -507 -5 -280 0 -509 2 -507 5 26 47 29 60 17 75 -18 21 -57 19 -70 -4z m47 -35 c-4 -9 -11 -16 -17 -16 -11 0 -14 33 -3 44 11 10 26 -11 20 -28z m1053 3 c0 -20 -15 -26 -25 -9 -9 15 3 43 15 35 5 -3 10 -15 10 -26z m-423 -310 c33 -26 42 -44 43 -81 0 -48 -30 -81 -68 -76 -34 4 -42 41 -16 69 26 29 3 41 -70 36 -51 -3 -63 -8 -87 -35 -34 -38 -35 -43 -11 -71 12 -16 40 -26 102 -37 136 -26 170 -53 170 -135 0 -95 -67 -149 -183 -149 -109 0 -177 41 -177 107 0 26 6 36 27 46 23 10 27 9 37 -8 6 -10 23 -32 38 -47 21 -23 35 -28 73 -28 69 0 105 23 105 67 0 31 -34 50 -114 63 -38 6 -81 17 -96 25 -97 50 -93 184 6 245 61 38 178 43 221 9z"
       id="path2" />
    <path
       d="m 4345,816 c -17,-12 -21,-28 -23,-111 -4,-92 -5,-97 -29,-108 -22,-10 -28,-8 -44,11 -23,30 -14,56 17,48 27,-7 40,9 24,29 -9.2688,10.92396 -22.2634,15.05395 -35.5013,14.05857 C 4227.7464,697.04702 4200,674.10369 4200,644 c 0,-23 -18,-44 -37,-44 -10,0 -12,10 -7,40 6,35 4,41 -18,50 -36,17 -74,-2 -97,-48 -19,-37 -37,-52 -63,-52 -6,0 -4,8 5,18 21,23 22,65 2,82 -22,18 -64,4 -75,-26 -15,-38 -12,-53 15,-79 25,-26 76,-33 104,-16 9,6 22,6 32,0 10,-5 27,-5 41,0 14,5 29,4 40,-2 12,-8 24,-7 43,1 19,9 32,9 47,1 11,-6 34,-8 52,-5 17,4 41,7 54,6 17,0 22,6 22,24 0,27 37,79 51,71 5,-4 9,-23 9,-44 0,-51 21,-69 62,-53 22,8 36,8 51,1 50,-27 137,12 137,62 0,12 7,19 18,19 15,0 19,-8 18,-42 -1,-38 2,-43 22,-46 13,-2 34,4 48,12 28,19 34,52 7,41 -47,-19 -57,-19 -48,1 17,42 12,59 -21,62 -22,2 -34,9 -37,23 -10,36 -42,19 -43,-21 -1,-55 -3,-59 -29,-76 -33,-21 -41,-13 -20,20 21,32 12,64 -22,72 -28,7 -60,-18 -65,-51 -9,-57 -44,-58 -40,-1 6,63 -33,86 -76,46 -26,-24 -27,-17 -7,40 18,52 19,61 2,83 -11,16 -14,16 -32,3 z M 3970,653 c 0,-5 -4,-15 -10,-23 -11,-18 -25,-7 -17,15 6,15 27,21 27,8 z m 150,-12 c 0,-22 -25,-45 -40,-36 -14,9 -13,21 6,39 21,21 34,20 34,-3 z m 440,5 c 0,-16 -18,-31 -27,-22 -8,8 5,36 17,36 5,0 10,-6 10,-14 z"
       id="path4"
       sodipodi:nodetypes="ccccccssscccsccccccscccccscsccsscccccscccccccccccsccssccsssss" />
    <path
       d="M2400 805 c-7 -8 -15 -35 -18 -60 -3 -33 -9 -45 -21 -45 -27 0 -54 -25 -66 -61 -7 -19 -19 -35 -28 -37 -12 -3 -17 7 -19 45 -2 35 -7 48 -18 48 -9 0 -16 -11 -18 -25 -7 -60 -12 -71 -35 -68 -18 2 -22 10 -23 41 -1 72 -32 70 -44 -3 -4 -26 -10 -35 -25 -35 -30 0 -33 47 -4 60 28 12 37 35 14 35 -14 0 -16 6 -11 33 3 17 1 39 -4 47 -9 13 -13 12 -30 -9 -11 -13 -20 -31 -20 -42 0 -10 -8 -22 -17 -28 -15 -8 -16 -13 -5 -30 6 -12 12 -34 12 -50 0 -51 44 -76 90 -51 13 7 27 6 45 -2 20 -9 31 -9 45 0 15 9 26 9 44 1 16 -8 30 -8 42 -1 12 7 25 6 42 -1 17 -8 29 -8 43 1 15 10 23 10 38 0 15 -9 25 -9 46 0 19 9 30 9 44 1 12 -8 36 -9 76 -3 53 8 59 12 66 38 9 34 38 68 51 60 5 -4 7 -21 4 -39 -8 -43 15 -70 53 -60 33 7 39 7 74 -1 21 -5 36 -1 56 14 27 20 28 20 39 1 15 -23 70 -26 78 -4 3 8 22 24 41 35 27 16 33 24 25 32 -8 8 -18 8 -36 1 -30 -14 -46 0 -46 39 0 45 -32 35 -76 -24 -40 -54 -70 -70 -85 -46 -15 23 -10 38 15 48 33 12 42 30 19 36 -15 4 -17 13 -15 50 3 34 1 44 -11 44 -20 0 -33 -19 -41 -57 -4 -17 -14 -34 -23 -37 -14 -6 -14 -8 0 -24 23 -26 12 -72 -18 -72 -9 0 -15 15 -17 48 -3 41 -6 47 -26 50 -13 2 -32 -4 -42 -13 -16 -14 -18 -14 -23 0 -4 8 -13 15 -22 15 -11 0 -15 -11 -15 -39 0 -41 -10 -54 -49 -66 -23 -7 -23 -7 -7 16 23 34 20 67 -8 80 -31 15 -64 -3 -72 -39 -10 -48 -14 -54 -31 -50 -19 4 -19 2 -7 129 7 78 -2 103 -26 74z m-20 -164 c0 -22 -25 -45 -40 -36 -15 9 -12 26 6 46 19 21 34 16 34 -10z m144 10 c3 -5 -1 -14 -9 -21 -13 -10 -15 -9 -15 9 0 21 14 28 24 12z m427 -14 c-13 -13 -26 -3 -16 12 3 6 11 8 17 5 6 -4 6 -10 -1 -17z m19 -37 c0 -5 -7 -10 -15 -10 -8 0 -15 5 -15 10 0 6 7 10 15 10 8 0 15 -4 15 -10z"
       id="path6" />
    <path
       d="M1875 801 c-36 -15 -57 -47 -53 -82 3 -37 28 -54 91 -64 44 -7 59 -31 32 -51 -29 -21 -62 -17 -84 12 -22 27 -41 25 -41 -6 0 -51 112 -69 155 -25 44 43 23 98 -42 109 -62 11 -73 16 -73 35 0 26 21 41 57 41 31 0 33 -2 27 -25 -5 -21 -3 -25 14 -25 11 0 23 8 27 19 16 51 -48 87 -110 62z"
       id="path8" />
    <path
       d="M3738 799 c-17 -10 -24 -39 -12 -51 3 -3 18 -1 33 5 15 5 40 7 54 3 25 -6 27 -11 27 -54 0 -58 -18 -96 -48 -100 -27 -4 -31 25 -5 43 16 12 11 35 -8 35 -18 0 -49 -40 -49 -64 0 -33 25 -56 60 -56 48 0 70 27 83 105 7 45 18 75 29 83 22 16 23 35 2 53 -12 10 -20 10 -34 1 -13 -8 -29 -8 -52 -2 -41 12 -58 12 -80 -1z"
       id="path10" />
    <path
       d="M3217 780 c-14 -11 -33 -42 -43 -68 -10 -26 -21 -52 -26 -59 -5 -6 -8 -27 -6 -45 4 -43 30 -48 45 -8 10 26 16 30 47 30 31 0 36 -3 36 -24 0 -25 22 -51 33 -39 4 3 7 19 7 34 0 18 6 28 20 32 16 4 18 2 10 -13 -15 -28 -12 -50 6 -50 9 0 22 17 31 40 21 52 45 54 41 4 -4 -47 18 -64 63 -47 21 8 38 9 50 3 29 -16 75 -11 100 9 18 15 21 22 12 31 -9 10 -17 9 -34 -4 -34 -23 -57 -22 -36 2 31 34 16 92 -23 92 -28 0 -51 -25 -59 -60 -4 -21 -14 -36 -24 -38 -15 -3 -17 2 -11 37 6 40 6 41 -24 41 -22 0 -32 6 -37 20 -4 11 -15 20 -27 20 -17 0 -20 -5 -16 -30 4 -24 1 -30 -9 -25 -8 3 -19 5 -24 5 -5 0 -9 18 -9 40 0 83 -39 113 -93 70z m51 -68 c2 -29 -1 -42 -10 -42 -7 0 -24 -3 -37 -7 -22 -6 -23 -4 -17 23 10 40 35 76 49 71 7 -2 13 -22 15 -45z m292 -59 c0 -5 -4 -15 -10 -23 -11 -18 -25 -7 -17 15 6 15 27 21 27 8z"
       id="path12" />
  </g>
</svg>
